<?xml version="1.0" encoding="UTF-8" standalone="no"?>
<svg
   version="1.1"
   viewBox="0 0 999.99993 433.17926"
   id="svg79"
   sodipodi:docname="Rated NC-17.svg"
   width="1000.0001"
   height="433.17926"
   inkscape:version="1.1.2 (b8e25be833, 2022-02-05)"
   xmlns:inkscape="http://www.inkscape.org/namespaces/inkscape"
   xmlns:sodipodi="http://sodipodi.sourceforge.net/DTD/sodipodi-0.dtd"
   xmlns="http://www.w3.org/2000/svg"
   xmlns:svg="http://www.w3.org/2000/svg">
  <sodipodi:namedview
     id="namedview81"
     pagecolor="#ffffff"
     bordercolor="#666666"
     borderopacity="1.0"
     inkscape:pageshadow="2"
     inkscape:pageopacity="0.0"
     inkscape:pagecheckerboard="0"
     showgrid="false"
     inkscape:zoom="0.5"
     inkscape:cx="569"
     inkscape:cy="246"
     inkscape:window-width="1366"
     inkscape:window-height="705"
     inkscape:window-x="-8"
     inkscape:window-y="-8"
     inkscape:window-maximized="1"
     inkscape:current-layer="svg79" />
  <defs
     id="defs5">
    <clipPath
       id="a">
      <path
         d="M 0,39.664 H 86.875 V 0 H 0 Z"
         id="path2" />
    </clipPath>
  </defs>
  <g
     id="g1277"
     transform="matrix(1.2130485,0,0,1.2130485,0,-120.65572)">
    <path
       d="M 13.122318,112.09222 H 810.48729 v 331.845 H 13.122318 Z M 0,456.56457 h 824.36932 l 6e-5,-357.099696 H 6.4765625e-5 Z"
       id="path51"
       style="stroke-width:11.5108"
       sodipodi:nodetypes="cccccccccc" />
    <path
       id="path55"
       style="stroke-width:11.5108"
       d="m 719.125,193.95232 c -28.30507,0 -54.33029,1.30108 -66.45117,10.83203 -8.56403,6.31943 -9.54231,12.01639 -9.83008,27.30274 0.93237,8.26475 -3.22379,24.81834 27.95898,20.70898 25.74967,-5.77842 -0.95508,-20.36257 36.23633,-22.91797 14.31944,-0.31079 24.16146,-0.62133 30.50391,-0.31054 -18.41729,39.7353 -36.52478,79.8262 -60.70899,131.29101 -2.52086,5.73238 -6.9863,15.22852 3.17774,15.22852 h 33.70312 c 9.19714,-0.29928 10.49821,-5.06386 13.31836,-12.70703 19.13095,-44.83459 33.12711,-76.59241 58.54297,-132.84571 3.8331,-7.36692 3.83397,-14.96435 2.21094,-24.12695 -2.55539,-9.93382 -13.65135,-12.09825 -22.89453,-12.45508 z m -364.5625,0.12891 c -4.60416,-8.1e-4 -9.5455,0.0363 -14.875,0.0996 -37.75544,1.02446 -54.16995,13.61604 -67.36133,37.66211 -13.15685,26.96982 -15.80423,82.08346 -4.53515,109.73242 3.76404,7.48202 4.17855,23.04644 38.38867,32.96875 25.33528,5.57123 79.63179,5.50096 109.30664,-5.36524 -0.0115,0.023 20.09765,-6.98747 20.09765,-29.21484 0.12662,-5.23741 -9.23234,-14.13551 -29.98632,0.31055 -17.93383,13.81296 -56.19571,15.65606 -72.21875,8.72656 -9.01296,-3.8331 -13.47836,-10.15365 -17.25391,-23.63281 -1.96835,-6.45756 -8.59949,-74.57741 5.57031,-94.21485 8.89785,-16.05757 38.90725,-16.61053 53.3418,-13.21484 14.52664,5.45612 12.82342,10.91136 18.50977,34.43945 5.28345,10.0144 13.08734,9.79733 24.51757,9.49805 18.49786,-0.97842 17.13868,-14.11269 17.13867,-28.35156 0.16116,-21.60578 -4.58082,-24.16179 -15.75781,-30.63086 -16.93096,-6.98994 -32.65366,-8.80684 -64.88281,-8.8125 z m -286.935548,2.22656 c -5.541014,0.0259 -11.609105,0.14543 -18.837891,0.51953 -13.686347,0.3223 -13.906496,14.32072 -5.054687,16.83008 14.261887,4.09784 23.31002,1.10492 24.253906,18.58984 v 103.97657 c 0.195684,21.00722 -16.908829,21.70898 -16.943359,21.70898 -17.507934,2.60144 -17.599652,17.70467 -3.222656,18.22266 0,0 71.515625,-0.059 71.515625,-0.082 11.49929,-0.35683 17.85321,-14.81413 -3.24609,-17.71485 -15.28635,-2.10648 -18.899347,-5.49012 -18.300785,-23.53906 l -0.197266,-76.27151 c -0.541007,-2.04893 0.41482,-1.64443 1.105469,-0.125 -0.01151,0 84.029302,111.00976 84.029302,111.00976 4.0518,4.42015 7.80428,7.00938 14.37695,6.66406 0,0.0576 22.53876,0.0586 22.63086,0.0586 11.95972,0 10.50781,-17.45118 10.50781,-17.45118 l -0.5293,-122.17578 c 0.34533,-20.82305 14.99939,-20.74178 18.53321,-22.34179 15.977,-5.91655 11.60192,-16.92197 -0.70313,-17.35938 -7.1367,-0.25324 -60.36201,0.14964 -67.75195,0 -12.30505,0.43741 -15.68969,14.89475 2.78515,17.9336 6.22734,2.16403 16.83004,0.94452 17.15235,21.76757 0,0 -0.092,69.41016 -0.10352,69.41016 0.63309,4.82303 -1.19726,1.28906 -1.19726,1.28906 L 115.125,200.04021 c -3.90216,-4.56979 -20.430476,-3.46489 -31.826173,-3.68359 -5.116553,-0.006 -10.130861,-0.0747 -15.671875,-0.0488 z m 533.382818,1.13281 c -6.76512,0.009 -15.44998,0.23996 -22.14063,0.38672 -13.24894,1.84173 -23.5621,5.81228 -45.27148,13.25977 -12.58131,5.0072 -8.64591,24.02391 13.76562,19.29297 15.2288,-1.76115 12.25973,6.37618 12.58203,13.68554 l -0.49414,94.11328 c -0.50648,17.84175 -4.66231,18.34701 -13.21484,19.7168 h -4.17774 c -13.60577,1.11655 -11.45459,17.19688 -0.50781,16.85156 h 40.6211 c 18.88923,0 37.3429,0.12696 48.32421,0.12696 10.57843,-0.12661 10.71568,-16.59841 -1.34765,-16.74805 h -2.26758 c -13.44462,-0.19568 -17.1848,-5.73143 -17.03516,-19.94727 V 230.4367 c 0,-14.03167 -0.25324,-22.27208 0,-28.6836 0.11511,-2.06044 0.0913,-4.23633 -2.85547,-4.23633 -1.68345,-0.0576 -3.72543,-0.0792 -5.98046,-0.0762 z m -131.83008,72.74024 c -10.82015,0.87482 -16.90775,6.30699 -16.66602,19.08398 0.18417,10.03743 5.84699,15.24182 16.6211,15.4375 l 32.42578,0.16016 c 10.95828,0 14.36619,-11.93722 14.52734,-15.59766 0.29929,-7.28633 -2.60215,-18.95736 -14.52734,-19.08398 H 484.2832 Z" />
  </g>
</svg>
