<?xml version="1.0" encoding="UTF-8" standalone="no"?>
<svg
   version="1.1"
   viewBox="0 0 999.99998 435.23833"
   id="svg79"
   sodipodi:docname="Rated PG-13.svg"
   width="1000"
   height="435.23834"
   inkscape:version="1.1.2 (b8e25be833, 2022-02-05)"
   xmlns:inkscape="http://www.inkscape.org/namespaces/inkscape"
   xmlns:sodipodi="http://sodipodi.sourceforge.net/DTD/sodipodi-0.dtd"
   xmlns="http://www.w3.org/2000/svg"
   xmlns:svg="http://www.w3.org/2000/svg">
  <sodipodi:namedview
     id="namedview81"
     pagecolor="#ffffff"
     bordercolor="#666666"
     borderopacity="1.0"
     inkscape:pageshadow="2"
     inkscape:pageopacity="0.0"
     inkscape:pagecheckerboard="0"
     showgrid="false"
     inkscape:zoom="0.5"
     inkscape:cx="451"
     inkscape:cy="246"
     inkscape:window-width="1366"
     inkscape:window-height="705"
     inkscape:window-x="-8"
     inkscape:window-y="-8"
     inkscape:window-maximized="1"
     inkscape:current-layer="svg79" />
  <defs
     id="defs5">
    <clipPath
       id="a">
      <path
         d="M 0,41.762 H 82.399 V 0 H 0 Z"
         id="path2" />
    </clipPath>
  </defs>
  <g
     id="g1313"
     transform="scale(1.2250393)">
    <path
       d="M 13.823068,13.26481 H 801.68843 v 328.7556 H 13.823068 Z M 1.703125e-5,355.2852 H 816.30033 L 816.30031,0 H 0 Z"
       id="path51"
       style="stroke-width:12.1361"
       sodipodi:nodetypes="cccccccccc" />
    <path
       id="path55"
       style="stroke-width:12.1361"
       d="m 689.209,92.35847 c -25.05579,0.0284 -43.30068,1.27568 -53.82421,9.55859 -8.72588,6.45642 -9.47785,11.72509 -9.78125,27.10156 0.77671,8.2283 -3.13101,24.38035 27.76757,20.36329 25.31597,-5.53408 1.58914,-31.8808 38.41016,-34.21094 15.80124,-1.05584 34.04083,-0.59491 35.01172,25.44922 0.37622,19.16295 -2.92405,26.29976 -15.58203,28.88476 -23.10719,4.86659 -38.04721,-4.86765 -35.59571,16.78321 3.65297,13.32547 25.91127,3.44763 42.06446,10.19531 8.92005,5.50981 11.3111,11.15153 9.81836,29.06445 -1.55343,25.34024 -18.92138,28.59375 -32.79297,28.59375 -4.51464,0 -20.99544,1.43121 -24.3086,-9.00586 -6.03166,-27.42766 -22.6446,-26.49337 -32.18359,-22.76758 -11.69923,4.68454 -12.58659,14.96525 -12.11328,26.65235 0.41263,17.24544 4.56318,25.58264 44.29687,27.60937 44.73377,1.97819 97.99931,5.7035 102.5625,-50.81445 1.00729,-28.70195 -8.76132,-38.05918 -20.8125,-47.18555 18.87169,-10.12153 23.76162,-17.89943 21.15235,-46.15234 -6.20156,-40.65603 -55.59497,-39.89218 -72.9375,-40.07422 -3.85474,-0.0288 -7.57295,-0.049 -11.15235,-0.0449 z M 331.32033,95.1573 c -26.80871,1.97819 -95.85027,-10.41279 -95.54687,99.04297 2.02674,84.46745 38.034,85.87636 89.23633,87.02929 82.99899,1.51702 91.50781,-20.16992 91.50781,-20.16992 0,0 -0.0607,-32.58615 0,-37.80469 0.12136,-10.00017 8.50592,-14.61174 13.61523,-16.01953 19.33285,-5.12145 15.83917,-16.55319 -0.15625,-16.88086 -8.81083,-0.42477 -39.51554,0.0845 -53.375,0.18164 h -25.99609 c -17.53671,1.03157 -13.70134,15.09703 2.14844,17.33008 7.9613,2.48791 13.43499,2.61032 14.92773,9.625 1.69906,7.86421 0.47266,22.90039 0.47266,22.90039 0,16.74785 -12.99717,18.361 -36.08008,18.3125 -43.08326,0.5704 -43.84871,-28.09428 -44.61328,-67.71875 -0.99517,-52.37953 3.82296,-75.68119 47.98633,-75.35351 25.70432,-0.0364 32.22187,5.10976 35.76562,29.91601 1.7112,9.52686 3.49556,20.04891 27.30664,18.05859 16.95418,-0.76457 20.26728,-14.80596 20.04883,-29.81835 -0.23059,-15.03667 -0.98418,-23.25392 -18.08398,-29.27344 -11.08029,-4.12629 -31.03236,-8.81129 -69.16407,-9.35742 z m 247.05274,3.82031 c -6.61666,0.003 -15.13602,0.19679 -21.74414,0.32422 -12.98566,1.77187 -23.05852,5.71791 -44.35743,13.01172 -12.35458,4.86659 -8.43347,23.56652 13.48438,18.90625 14.96385,-1.65051 12.03756,6.26379 12.36523,13.47265 l -0.48437,92.19727 c -0.46117,17.46389 -4.55185,17.91377 -12.92578,19.28515 h -4.11328 c -13.34974,1.10439 -11.21342,16.83257 -0.52149,16.58985 h 39.83008 c 18.50759,0 36.55473,0.0716 47.34375,0.0351 10.35211,-0.0364 10.49791,-16.27275 -1.31055,-16.40625 h -2.26953 c -13.15557,-0.1699 -16.81011,-5.62016 -16.65234,-19.5039 V 131.2198 c 0,-13.62887 -0.27913,-21.74739 0,-28.07032 0.085,-1.97819 0.0614,-4.10156 -2.80274,-4.10156 -1.64141,-0.0516 -3.63624,-0.0713 -5.84179,-0.0703 z m -453.14453,0.42187 c -23.28923,0 -41.492343,0.57032 -54.890629,0.57032 -9.890946,0 -16.821212,-0.38832 -30.765625,0.33984 -13.143427,0.30341 -14.078253,12.14686 -2.148438,16.05469 13.131291,5.59476 23.980416,1.51778 24.890625,18.43554 v 100.14649 c -0.315539,20.00034 -13.046233,18.70197 -19.539062,21.34765 -17.585251,1.46848 -15.497206,16.6994 -3.652344,17.14844 6.881185,0.267 19.078539,0.1211 33.775391,0.1211 29.976232,0 65.620442,0.31657 73.533202,0.0859 11.2866,-0.37622 12.74181,-16.50501 -7.46484,-17.94921 -16.71145,-2.92481 -25.51027,-4.70938 -24.92774,-22.07618 L 113.72463,204.085 c 5.44912,0.29127 11.21375,0.0977 15.95898,0.0977 64.46712,0 99.41771,6.18856 95.10938,-60.74219 -0.77671,-45.92312 -32.22107,-44.04102 -99.56445,-44.04102 z m 5.7539,19.76953 c 27.9495,-0.35194 36.34772,5.81167 38.44727,26.56446 0.60681,40.49826 -12.95047,38.41211 -46.76172,38.41211 -2.86413,0 -5.71624,-5.9e-4 -8.62891,-0.26758 v -57.52539 c 0,-5.82534 4.15188,-7.1836 16.94336,-7.1836 z m 339.33594,46.00196 c -10.53416,0.92235 -16.49425,6.17807 -16.26367,18.60547 0.25486,9.83026 5.72894,14.81782 16.16601,15.06054 l 31.57813,0.1211 c 10.65553,0 13.9329,-11.66217 14.0664,-15.18164 0.33981,-7.06323 -2.5128,-18.43556 -14.0664,-18.60547 h -16.82031 z" />
  </g>
</svg>
