<?xml version="1.0" encoding="UTF-8" standalone="no"?>
<svg
   version="1.1"
   viewBox="0 0 999.99999 582.03271"
   id="svg67"
   sodipodi:docname="Rated PG.svg"
   width="1000"
   height="582.03271"
   inkscape:version="1.1.2 (b8e25be833, 2022-02-05)"
   xmlns:inkscape="http://www.inkscape.org/namespaces/inkscape"
   xmlns:sodipodi="http://sodipodi.sourceforge.net/DTD/sodipodi-0.dtd"
   xmlns="http://www.w3.org/2000/svg"
   xmlns:svg="http://www.w3.org/2000/svg">
  <sodipodi:namedview
     id="namedview69"
     pagecolor="#ffffff"
     bordercolor="#666666"
     borderopacity="1.0"
     inkscape:pageshadow="2"
     inkscape:pageopacity="0.0"
     inkscape:pagecheckerboard="0"
     showgrid="false"
     inkscape:zoom="0.5"
     inkscape:cx="427"
     inkscape:cy="402"
     inkscape:window-width="1366"
     inkscape:window-height="705"
     inkscape:window-x="-8"
     inkscape:window-y="-8"
     inkscape:window-maximized="1"
     inkscape:current-layer="svg67" />
  <defs
     id="defs5">
    <clipPath
       id="a">
      <path
         d="M 0,47.832 H 77.333 V 0 H 0 Z"
         id="path2" />
    </clipPath>
  </defs>
  <g
     id="g1582">
    <path
       d="M 18.333262,17.641644 H 980.66869 V 564.39098 H 18.333262 Z M 0,582.03271 H 999.99903 L 1000,0 H 9.762733e-4 Z"
       id="path7"
       style="stroke-width:16.0818"
       sodipodi:nodetypes="cccccccccc" />
    <path
       id="path11"
       style="stroke-width:16.0818"
       d="m 706.27753,105.72229 c -55.3536,4.19735 -197.7249,-21.454246 -197.14595,204.35042 4.22951,174.19816 78.46343,177.06145 184.02443,179.53805 171.20692,3.03947 188.71972,-41.71587 188.71972,-41.71587 0,0 -0.0965,-67.09271 0,-77.96402 0.32164,-20.52038 17.64019,-30.15376 28.12553,-32.952 39.85074,-10.59791 32.64741,-34.14328 -0.27204,-34.88305 -18.14029,-0.91666 -81.48789,0.13018 -110.09744,0.45181 h -53.6156 c -36.2484,2.10671 -28.22375,31.13404 4.40623,35.65304 16.45168,5.25874 27.72466,5.33992 30.86061,19.94219 3.39326,16.19439 0.82101,47.118 0.82101,47.118 0,34.4794 -26.7599,37.87398 -74.28165,37.76143 -88.90023,1.2383 -90.44536,-57.96044 -92.11788,-139.52735 -2.07455,-108.16626 7.94442,-156.02513 99.04787,-155.4301 62.70296,0.45029 66.53137,3.60367 73.7521,61.67507 3.50584,19.68414 7.18884,41.28084 56.27051,37.16389 35.01011,-1.52777 41.89226,-30.50693 41.40981,-61.5609 -0.51461,-30.8449 -2.00973,-47.87596 -37.26106,-60.25896 -22.96482,-8.50726 -64.07049,-18.18768 -142.6462,-19.36165 z m -432.22824,16.91078 c -48.02028,0 -85.52158,1.04448 -113.18228,1.04448 -20.40781,0 -34.75404,-0.70618 -63.411805,0.78944 -27.242584,0.62719 -29.02664,25.07164 -4.517965,33.03215 27.13001,11.67538 49.53116,3.26342 51.33232,38.09662 v 206.49037 c -0.59502,41.28202 -26.88743,38.59659 -40.17101,44.01615 -36.31272,3.0073 -32.117262,34.46433 -7.624668,35.381 14.200238,0.49853 39.352298,0.32063 69.666518,0.32063 61.85063,0 135.34543,0.61119 151.68455,0.12874 23.23822,-0.77193 26.24433,-34.06188 -15.45581,-37.06917 -34.4794,-6.03068 -52.60245,-9.69638 -51.28375,-45.47841 l -0.74085,-60.9172 c 11.17687,0.53068 23.09477,0.24046 32.969,0.24046 132.93223,0 205.0278,12.688 196.1185,-125.26176 -1.60819,-94.86659 -66.45201,-90.8135 -205.38275,-90.8135 z m 11.88515,40.80013 c 57.65328,-0.80408 74.94032,11.96355 79.31456,54.75724 1.20613,83.43242 -26.66164,79.12266 -96.42451,79.12266 -5.95028,0 -11.86923,5.9e-4 -17.7391,-0.49795 V 178.16274 c 0,-12.04527 8.49097,-14.72954 34.84905,-14.72954 z" />
  </g>
</svg>
