<?xml version="1.0" encoding="UTF-8" standalone="no"?>
<svg
   version="1.1"
   viewBox="0 0 999.99997 887.22771"
   id="svg63"
   sodipodi:docname="Rated R.svg"
   width="1000"
   height="887.22766"
   inkscape:version="1.1.2 (b8e25be833, 2022-02-05)"
   xmlns:inkscape="http://www.inkscape.org/namespaces/inkscape"
   xmlns:sodipodi="http://sodipodi.sourceforge.net/DTD/sodipodi-0.dtd"
   xmlns="http://www.w3.org/2000/svg"
   xmlns:svg="http://www.w3.org/2000/svg">
  <sodipodi:namedview
     id="namedview65"
     pagecolor="#ffffff"
     bordercolor="#666666"
     borderopacity="1.0"
     inkscape:pageshadow="2"
     inkscape:pageopacity="0.0"
     inkscape:pagecheckerboard="0"
     showgrid="false"
     inkscape:zoom="0.5"
     inkscape:cx="419"
     inkscape:cy="384"
     inkscape:window-width="1366"
     inkscape:window-height="705"
     inkscape:window-x="-8"
     inkscape:window-y="-8"
     inkscape:window-maximized="1"
     inkscape:current-layer="svg63" />
  <defs
     id="defs5">
    <clipPath
       id="a">
      <path
         d="M 0,50.393 H 62.816 V 0 H 0 Z"
         id="path2" />
    </clipPath>
  </defs>
  <g
     id="g1203"
     transform="matrix(1.320871,0,0,1.320871,1.0732077e-5,-172.42827)">
    <path
       d="M 18.132513,147.95749 H 737.87705 V 784.82417 H 18.132513 Z M 0,802.24031 h 757.07618 l -10e-6,-671.69897 H -8.125e-6 Z"
       id="path51"
       style="stroke-width:15.9196"
       sodipodi:nodetypes="cccccccccc" />
    <path
       d="m 457.51083,375.80468 c -1.57605,74.29714 -14.58243,68.55014 -83.83303,70.20579 -8.32599,0.20691 -48.22069,0 -62.89864,0 0.50947,-23.03578 0.50947,-120.52789 0.50947,-120.52789 0,-16.09479 9.09015,-27.79575 26.31524,-28.36886 117.78969,-3.67745 121.37162,9.74284 119.907,78.69096 m -89.94622,147.5595 c 11.30297,15.02817 19.99512,27.20673 19.99512,27.20673 15.41024,20.42494 88.75219,142.65623 121.49897,145.42625 l 163.73388,0.20692 c 26.90426,-0.46171 32.76269,-35.9944 2.46756,-43.65176 -12.97455,-4.2824 -54.04731,-7.30713 -107.99909,-75.18864 -31.44137,-38.65297 -60.09679,-74.20161 -73.40564,-92.68436 75.12496,0 101.13771,-22.33531 102.07697,-107.58518 0.8119,-148.75347 -58.40929,-123.45709 -220.82185,-127.05495 0,0 -253.25022,-0.84378 -259.31562,-1.20989 -54.986564,-1.73524 -71.511189,44.84573 3.67745,48.41175 38.70074,2.78594 58.88689,23.22679 61.80019,79.82125 v 201.60679 c -2.32428,58.29787 -3.37498,71.44752 -73.02357,77.0194 -38.016185,0.47759 -42.999044,40.35639 9.04238,40.65886 7.11609,-0.20691 251.75378,-0.35019 251.99258,-0.35019 56.08502,2.22875 50.83153,-38.46195 13.9138,-40.38822 -48.95301,-3.70929 -71.97287,4.07543 -73.72404,-57.9158 -0.27067,-6.6385 -1.41684,-43.55623 -1.41684,-55.40046 0.14327,-52.99661 39.67184,-47.79088 59.50775,-18.9285"
       id="path55"
       style="stroke-width:15.9196" />
  </g>
</svg>
